<svg fill="#4530af" height="511pt" viewBox="-7 0 511 512" width="511pt" xmlns="http://www.w3.org/2000/svg"><path d="m385.472656 247.464844v-204.796875c0-4.714844-3.820312-8.535157-8.535156-8.535157h-256c-4.710938 0-8.53125 3.820313-8.53125 8.535157v204.796875c0 4.714844 3.820312 8.535156 8.53125 8.535156h256c4.714844 0 8.535156-3.820312 8.535156-8.535156zm-17.066406-8.53125h-238.933594v-187.734375h238.933594zm0 0"/><path d="m283.070312 153.601562h-68.265624c-4.710938 0-8.53125 3.820313-8.53125 8.53125 0 23.566407 19.101562 42.667969 42.664062 42.667969 23.566406 0 42.667969-19.101562 42.667969-42.667969 0-4.710937-3.820313-8.53125-8.535157-8.53125zm-34.132812 34.132813c-10.84375-.015625-20.511719-6.847656-24.140625-17.066406h48.28125c-3.628906 10.21875-13.292969 17.050781-24.140625 17.066406zm0 0"/><path d="m180.671875 128c0 4.710938 3.820313 8.535156 8.53125 8.535156h34.136719c3.464844.003906 6.589844-2.09375 7.902344-5.304687 1.308593-3.210938.539062-6.894531-1.941407-9.316407 1.671875-3.417968 2.550781-7.171874 2.570313-10.980468 0-14.140625-11.460938-25.601563-25.597656-25.601563-14.140626 0-25.601563 11.460938-25.601563 25.601563.019531 3.808594.898437 7.5625 2.574219 10.980468-1.644532 1.597657-2.574219 3.792969-2.574219 6.085938zm25.601563-25.601562c4.710937 0 8.53125 3.820312 8.53125 8.535156 0 4.710937-3.820313 8.53125-8.53125 8.53125-4.714844 0-8.535157-3.820313-8.535157-8.53125.003907-4.710938 3.824219-8.53125 8.535157-8.535156zm0 0"/><path d="m266.003906 128c0 4.710938 3.820313 8.535156 8.535156 8.535156h34.132813c3.46875.003906 6.59375-2.09375 7.902344-5.304687 1.308593-3.210938.542969-6.894531-1.941407-9.316407 1.671876-3.417968 2.550782-7.171874 2.570313-10.980468 0-14.140625-11.460937-25.601563-25.597656-25.601563-14.140625 0-25.601563 11.460938-25.601563 25.601563.023438 3.808594.902344 7.5625 2.574219 10.980468-1.644531 1.597657-2.574219 3.792969-2.574219 6.085938zm25.601563-25.601562c4.710937 0 8.53125 3.820312 8.53125 8.535156 0 4.710937-3.820313 8.53125-8.53125 8.53125-4.714844 0-8.535157-3.820313-8.535157-8.53125.003907-4.710938 3.824219-8.53125 8.535157-8.535156zm0 0"/><path d="m223.339844 324.265625h-51.203125c-4.710938 0-8.53125 3.820313-8.53125 8.535156 0 4.710938 3.820312 8.53125 8.53125 8.53125h51.203125c4.710937 0 8.53125-3.820312 8.53125-8.53125 0-4.714843-3.820313-8.535156-8.53125-8.535156zm0 0"/><path d="m262.164062 325.71875c-.433593-.339844-.925781-.597656-1.449218-.769531-.507813-.257813-1.058594-.429688-1.621094-.511719-2.78125-.515625-5.640625.339844-7.675781 2.304688-1.5625 1.632812-2.449219 3.796874-2.480469 6.058593-.023438 2.269531.871094 4.453125 2.476562 6.058594 1.605469 1.605469 3.789063 2.496094 6.058594 2.472656 4.699219-.03125 8.5-3.832031 8.53125-8.53125-.027344-2.277343-.945312-4.453125-2.558594-6.058593-.371093-.40625-.800781-.753907-1.28125-1.023438zm0 0"/><path d="m26.097656 512h445.683594c8.394531 0 16.253906-4.117188 21.039062-11.019531 4.78125-6.898438 5.875-15.707031 2.925782-23.566407l-38.398438-102.402343c-3.773437-9.96875-13.304687-16.578125-23.96875-16.613281h-64.972656v-51.199219h8.53125c23.554688-.027344 42.640625-19.113281 42.667969-42.664063v-221.867187c-.027344-23.554688-19.113281-42.6406252-42.667969-42.667969h-256c-23.550781.0273438-42.636719 19.113281-42.664062 42.667969v221.867187c.027343 23.550782 19.113281 42.636719 42.664062 42.664063h8.535156v51.199219h-64.976562c-10.660156.035156-20.195313 6.640624-23.964844 16.613281l-38.402344 102.402343c-2.945312 7.859376-1.851562 16.667969 2.929688 23.566407 4.78125 6.902343 12.640625 11.019531 21.039062 11.019531zm69.242188-247.464844v-221.867187c.015625-14.132813 11.464844-25.585938 25.597656-25.601563h256c14.132812.015625 25.585938 11.46875 25.601562 25.601563v221.867187c-.015624 14.128906-11.46875 25.582032-25.601562 25.597656h-256c-14.132812-.015624-25.582031-11.46875-25.597656-25.597656zm51.199218 42.664063h204.800782v51.199219h-204.800782zm-128.425781 176.203125 38.398438-102.40625c1.257812-3.320313 4.433593-5.519532 7.984375-5.53125h368.882812c3.550782.011718 6.726563 2.210937 7.984375 5.53125v.007812l38.398438 102.398438c.984375 2.621094.621093 5.554687-.972657 7.855468-1.59375 2.300782-4.210937 3.671876-7.007812 3.675782h-445.683594c-2.800781-.003906-5.417968-1.375-7.011718-3.675782-1.59375-2.300781-1.957032-5.234374-.972657-7.855468zm0 0"/><path d="m86.804688 409.601562h17.066406c4.714844 0 8.535156-3.820312 8.535156-8.535156 0-4.710937-3.820312-8.53125-8.535156-8.53125h-17.066406c-4.710938 0-8.53125 3.820313-8.53125 8.53125 0 4.714844 3.820312 8.535156 8.53125 8.535156zm0 0"/><path d="m61.203125 443.734375h17.070313c4.710937 0 8.53125-3.820313 8.53125-8.535156 0-4.710938-3.820313-8.53125-8.53125-8.53125h-17.070313c-4.710937 0-8.53125 3.820312-8.53125 8.53125 0 4.714843 3.820313 8.535156 8.53125 8.535156zm0 0"/><path d="m44.136719 477.867188h17.066406c4.714844 0 8.535156-3.820313 8.535156-8.535157 0-4.710937-3.820312-8.53125-8.535156-8.53125h-17.066406c-4.710938 0-8.53125 3.820313-8.53125 8.53125 0 4.714844 3.820312 8.535157 8.53125 8.535157zm0 0"/><path d="m112.40625 460.800781h-17.066406c-4.714844 0-8.535156 3.820313-8.535156 8.53125 0 4.714844 3.820312 8.535157 8.535156 8.535157h17.066406c4.710938 0 8.53125-3.820313 8.53125-8.535157 0-4.710937-3.820312-8.53125-8.53125-8.53125zm0 0"/><path d="m351.339844 460.800781h-204.800782c-4.714843 0-8.535156 3.820313-8.535156 8.53125 0 4.714844 3.820313 8.535157 8.535156 8.535157h204.800782c4.710937 0 8.53125-3.820313 8.53125-8.535157 0-4.710937-3.820313-8.53125-8.53125-8.53125zm0 0"/><path d="m402.539062 460.800781h-17.066406c-4.714844 0-8.535156 3.820313-8.535156 8.53125 0 4.714844 3.820312 8.535157 8.535156 8.535157h17.066406c4.710938 0 8.53125-3.820313 8.53125-8.535157 0-4.710937-3.820312-8.53125-8.53125-8.53125zm0 0"/><path d="m428.136719 469.332031c0 4.714844 3.820312 8.535157 8.535156 8.535157h17.066406c4.710938 0 8.535157-3.820313 8.535157-8.535157 0-4.710937-3.824219-8.53125-8.535157-8.53125h-17.066406c-4.714844 0-8.535156 3.820313-8.535156 8.53125zm0 0"/><path d="m103.871094 435.199219c0 4.714843 3.820312 8.535156 8.535156 8.535156h17.066406c4.710938 0 8.53125-3.820313 8.53125-8.535156 0-4.710938-3.820312-8.53125-8.53125-8.53125h-17.066406c-4.714844 0-8.535156 3.820312-8.535156 8.53125zm0 0"/><path d="m155.070312 435.199219c0 4.714843 3.820313 8.535156 8.535157 8.535156h17.066406c4.710937 0 8.53125-3.820313 8.53125-8.535156 0-4.710938-3.820313-8.53125-8.53125-8.53125h-17.066406c-4.714844 0-8.535157 3.820312-8.535157 8.53125zm0 0"/><path d="m206.273438 435.199219c0 4.714843 3.820312 8.535156 8.53125 8.535156h17.066406c4.714844 0 8.535156-3.820313 8.535156-8.535156 0-4.710938-3.820312-8.53125-8.535156-8.53125h-17.066406c-4.710938 0-8.53125 3.820312-8.53125 8.53125zm0 0"/><path d="m257.472656 435.199219c0 4.714843 3.820313 8.535156 8.53125 8.535156h17.066406c4.714844 0 8.535157-3.820313 8.535157-8.535156 0-4.710938-3.820313-8.53125-8.535157-8.53125h-17.066406c-4.710937 0-8.53125 3.820312-8.53125 8.53125zm0 0"/><path d="m308.671875 435.199219c0 4.714843 3.820313 8.535156 8.53125 8.535156h17.070313c4.710937 0 8.53125-3.820313 8.53125-8.535156 0-4.710938-3.820313-8.53125-8.53125-8.53125h-17.070313c-4.710937 0-8.53125 3.820312-8.53125 8.53125zm0 0"/><path d="m359.871094 435.199219c0 4.714843 3.820312 8.535156 8.535156 8.535156h17.066406c4.710938 0 8.53125-3.820313 8.53125-8.535156 0-4.710938-3.820312-8.53125-8.53125-8.53125h-17.066406c-4.714844 0-8.535156 3.820312-8.535156 8.53125zm0 0"/><path d="m411.070312 435.199219c0 4.714843 3.820313 8.535156 8.535157 8.535156h17.066406c4.710937 0 8.53125-3.820313 8.53125-8.535156 0-4.710938-3.820313-8.53125-8.53125-8.53125h-17.066406c-4.714844 0-8.535157 3.820312-8.535157 8.53125zm0 0"/><path d="m138.003906 409.601562h17.066406c4.714844 0 8.535157-3.820312 8.535157-8.535156 0-4.710937-3.820313-8.53125-8.535157-8.53125h-17.066406c-4.710937 0-8.53125 3.820313-8.53125 8.53125 0 4.714844 3.820313 8.535156 8.53125 8.535156zm0 0"/><path d="m189.203125 409.601562h17.070313c4.710937 0 8.53125-3.820312 8.53125-8.535156 0-4.710937-3.820313-8.53125-8.53125-8.53125h-17.070313c-4.710937 0-8.53125 3.820313-8.53125 8.53125 0 4.714844 3.820313 8.535156 8.53125 8.535156zm0 0"/><path d="m291.605469 409.601562h17.066406c4.710937 0 8.53125-3.820312 8.53125-8.535156 0-4.710937-3.820313-8.53125-8.53125-8.53125h-17.066406c-4.714844 0-8.535157 3.820313-8.535157 8.53125 0 4.714844 3.820313 8.535156 8.535157 8.535156zm0 0"/><path d="m342.804688 409.601562h17.066406c4.714844 0 8.535156-3.820312 8.535156-8.535156 0-4.710937-3.820312-8.53125-8.535156-8.53125h-17.066406c-4.710938 0-8.53125 3.820313-8.53125 8.53125 0 4.714844 3.820312 8.535156 8.53125 8.535156zm0 0"/><path d="m394.003906 409.601562h17.066406c4.714844 0 8.535157-3.820312 8.535157-8.535156 0-4.710937-3.820313-8.53125-8.535157-8.53125h-17.066406c-4.710937 0-8.53125 3.820313-8.53125 8.53125 0 4.714844 3.820313 8.535156 8.53125 8.535156zm0 0"/><path d="m240.40625 409.601562h17.066406c4.710938 0 8.53125-3.820312 8.53125-8.535156 0-4.710937-3.820312-8.53125-8.53125-8.53125h-17.066406c-4.714844 0-8.535156 3.820313-8.535156 8.53125 0 4.714844 3.820312 8.535156 8.535156 8.535156zm0 0"/></svg>